<?xml version="1.0" encoding="utf-8"?>
<!-- Generator: Adobe Illustrator 16.0.0, SVG Export Plug-In . SVG Version: 6.00 Build 0)  -->
<!DOCTYPE svg PUBLIC "-//W3C//DTD SVG 1.1//EN" "http://www.w3.org/Graphics/SVG/1.1/DTD/svg11.dtd">
<svg version="1.1" id="Layer_1" xmlns="http://www.w3.org/2000/svg" xmlns:xlink="http://www.w3.org/1999/xlink" x="0px" y="0px"
	 width="128px" height="128px" viewBox="0 0 128 128" enable-background="new 0 0 128 128" xml:space="preserve">
<g>
	<path fill-rule="evenodd" clip-rule="evenodd" d="M87.226,104.276c0.156-1.257-1.082-3.116-2.574-3.813
		c-1.678-0.784-3.352-1.571-5.249-1.707c-0.26-0.018-0.487-0.347-0.751-0.497c-0.336-0.187-0.693-0.339-1.04-0.505
		c-0.107,0.426-0.341,0.87-0.283,1.273c0.051,0.372,0.416,0.7,0.669,1.087c-1.138,0-1.123,0.022-2.349,0.891
		c-2.903,2.056-5.894,3.967-9.621,3.964c-1.884-0.002-3.767-0.254-5.65-0.363c-0.75-0.044-1.504-0.007-2.255-0.007
		c-0.044-0.09-0.087-0.179-0.131-0.268c0.178-0.09,0.356-0.179,0.625-0.312c-1.921-0.7-3.758-1.257-5.503-2.028
		c-3.529-1.557-6.561-3.855-9.412-6.444c-3.526-3.201-7.14-6.305-10.763-9.396c-0.589-0.504-1.42-0.725-2.14-1.074
		c-1.036-0.502-2.073-1.004-3.054-1.762c0.139-0.034,0.278-0.068,0.425-0.104c-1.087-1.472-2.241-2.897-3.249-4.422
		c-2.258-3.414-4.003-7.097-5.419-10.932c-1.616-4.374-3.103-8.801-3.855-13.412c-0.589-3.616-0.897-7.278-1.333-10.92
		c-0.073-0.597-0.163-1.192-0.245-1.788c-0.114-0.022-0.227-0.045-0.34-0.068c-0.177,0.586-0.473,1.163-0.512,1.758
		c-0.239,3.619-0.418,7.242-0.817,10.876c0-0.97-0.048-1.944,0.009-2.911c0.174-2.94,0.346-5.882,0.625-8.813
		c0.058-0.607,0.571-1.172,0.874-1.756c0.273,0.574,0.758,1.139,0.784,1.724c0.235,5.332,0.903,10.602,2.203,15.777
		c1.749,6.965,4.216,13.659,8.152,19.706c1.298,1.995,2.966,3.75,4.508,5.58c0.288,0.34,0.754,0.577,1.184,0.745
		c2.561,0.995,4.624,2.692,6.624,4.516c2.791,2.542,5.59,5.083,8.493,7.498c1.896,1.576,3.851,3.167,6.007,4.328
		c3.869,2.088,8.052,3.427,12.477,3.689c3.292,0.197,6.352-0.663,9.041-2.658c0.32-0.237,0.666-0.455,1.025-0.623
		c1.351-0.628,2.117-1.698,2.494-3.112c0.329-1.23,0.666-1.266,1.709-0.506c0.563,0.409,1.29,0.629,1.971,0.842
		c2.054,0.642,4.079,1.31,5.803,2.692c0.32,0.257,0.958,0.092,1.438,0.184c0.439,0.086,0.863,0.257,1.294,0.39
		c-0.175,0.394-0.256,0.884-0.543,1.161c-0.786,0.765-0.462,1.442,0.031,2.136c0.882,1.242,0.385,2.771-1.132,2.84
		c-2.018,0.093-3.416,1.28-4.772,2.396c-2.894,2.374-5.537,5.054-8.422,7.44c-1.353,1.119-2.989,1.921-4.57,2.728
		c-1.421,0.726-2.892,1.462-4.427,1.823c-1.525,0.359-3.159,0.283-4.747,0.32c-0.188,0.004-0.601-0.547-0.544-0.723
		c0.271-0.854-0.317-0.798-0.812-0.904c-3.384-0.727-6.767-0.72-10.159-0.041c-0.377,0.076-0.865,0.105-1.167-0.072
		c-0.426-0.253-0.79-0.683-1.031-1.12c-0.053-0.098,0.476-0.622,0.815-0.805c0.593-0.319,1.249-0.525,1.741-0.725
		c-3.511-2.382-7.016-4.76-10.521-7.138c-1.742-1.183-3.475-2.38-5.235-3.537c-0.447-0.293-0.962-0.574-1.479-0.654
		c-2.375-0.373-4.407-1.482-6.214-2.969c-0.679-0.557-1.043-1.497-1.55-2.262c0.12-0.139,0.241-0.275,0.361-0.413
		c0.575,0.319,1.152,0.641,2.054,1.141C19.837,91.283,16.73,79.312,14.439,67.06c0.248,0.869,0.521,1.733,0.736,2.613
		c0.224,0.916,0.376,1.849,0.589,2.77c0.384,1.665,0.74,3.336,1.196,4.981c0.767,2.769,1.431,5.582,2.451,8.259
		c1.356,3.556,2.93,7.037,4.571,10.473c0.887,1.858,2.095,3.565,3.196,5.317c0.171,0.274,0.544,0.423,0.824,0.628
		c0.19-0.319,0.416-0.626,0.564-0.965c0.176-0.405,0.286-0.839,0.554-1.223c0.412,1.129,0.195,2.3-0.518,3.008
		c-0.41,0.407-1.552,0.073-2.605,0.073c1.246,0.76,2.338,1.69,3.603,2.124c1.484,0.51,3.11,0.647,4.688,0.828
		c0.962,0.109,1.508-0.542,1.734-1.475c0.107,0.027,0.213,0.057,0.32,0.084c-0.105,0.608-0.03,1.363-0.369,1.784
		c-0.315,0.391-1.071,0.428-1.721,0.65c0.905,0.602,1.833,1.201,2.743,1.829c2.901,2.004,5.778,4.044,8.7,6.018
		c1.354,0.913,2.772,1.74,4.209,2.518c0.231,0.125,0.802-0.115,1.064-0.354c1.038-0.948,1.966-2.021,3.035-2.928
		c0.764-0.648,1.679-1.121,2.55-1.631c0.169-0.101,0.447-0.015,0.782,0.211c-0.192,0.158-0.365,0.347-0.578,0.468
		c-1.568,0.9-3.139,1.717-4.221,3.321c-0.866,1.284-2.102,2.312-3.728,2.689c-0.334,0.078-0.627,0.324-0.906,0.695
		c2.643,0.141,5.329,0.168,7.787-0.748c2.482-0.926,4.766-2.38,7.138-3.603c0.057,0.094,0.114,0.186,0.17,0.279
		c-2.006,1.225-4.013,2.45-6.267,3.826c0.975,0.255,1.677,0.458,2.389,0.621c2.375,0.546,4.739,1.26,7.217,0.69
		c2.483-0.569,4.749-1.686,6.698-3.274c2.951-2.405,5.741-5.006,8.637-7.482c1.116-0.952,2.332-1.786,3.68-2.809
		c-0.513-0.126-0.935-0.334-1.345-0.313c-1.732,0.088-2.177-0.186-2.92-2.106c0.334,0.238,0.577,0.352,0.735,0.537
		c0.607,0.71,1.356,0.938,2.257,0.768c0.754-0.142,1.385-0.023,1.99,0.568c0.251,0.243,1.053,0.282,1.321,0.066
		c0.373-0.304,0.632-0.927,0.658-1.425c0.024-0.479,0.099-1.287-0.857-1.183L87.226,104.276z"/>
	<path fill-rule="evenodd" clip-rule="evenodd" d="M41.148,53.874c0.573-0.521,1.021-0.937,1.479-1.342
		c1.036-0.917,1.565-0.791,2.066,0.509c0.485-0.115,0.972-0.293,1.467-0.326c0.317-0.022,0.742,0.085,0.937,0.3
		c0.122,0.134-0.027,0.61-0.168,0.873c-0.635,1.184-1.323,2.341-1.971,3.519c-0.666,1.208-0.527,1.175,0.643,1.97
		c4.369,2.966,8.868,2.148,13.419,0.641c1.106-0.366,2.195-0.789,3.307-1.135c1.134-0.354,2.068-0.958,2.57-2.049
		c0.787-1.707,1.918-3.281,1.991-5.275c0.014-0.372,0.325-0.906,0.636-1.035c0.234-0.096,0.729,0.287,1.034,0.543
		c1.089,0.91,0.738,2.097,0.499,3.252c0.148,0.125,0.296,0.25,0.444,0.375c0.117-0.304,0.18-0.644,0.36-0.902
		c3.164-4.512,5.298-9.481,6.911-14.741c1.428-4.655,3.123-9.241,6.1-13.204c0.808-1.075,1.652-2.122,2.479-3.182
		c0.045-0.057,0.077-0.143,0.136-0.168c0.507-0.221,1.018-0.43,1.527-0.643c-0.023,0.536,0.146,1.192-0.101,1.59
		c-2.669,4.292-4.258,9.042-5.542,13.848c-1.096,4.098-1.586,8.356-2.4,12.531c-0.565,2.891-1.143,5.784-1.891,8.629
		c-0.255,0.973-1.015,1.824-1.6,2.695c-1.418,2.114-3.01,4.125-4.273,6.328c-1.599,2.782-3.913,4.561-6.858,5.593
		c-1.681,0.589-3.386,1.294-5.128,1.475c-2.44,0.25-4.95,0.28-7.385,0.007c-3.625-0.408-7.244-1.197-10.377-3.159
		c-2.295-1.438-4.646-2.999-6.436-4.986c-4.44-4.93-6.438-10.841-5.628-17.511c0.288-2.373,0.755-4.747,2.096-6.843
		c0.265-0.413,0.266-1.032,0.285-1.56c0.035-1.004,0.437-1.271,1.391-0.968c0.381,0.122,0.966,0.187,1.235-0.017
		c2.096-1.593,4.298-1.982,6.76-0.929c0.264,0.113,0.745-0.26,1.115-0.43c0.587-0.269,1.089-0.279,0.948,0.544
		c-0.281,1.647,0.853,2.782,1.461,4.073c0.524,1.111,0.299,2.915-0.867,3.339c-2.114,0.768-2.625,2.656-3.264,4.43
		C40.166,51.616,40.295,52.745,41.148,53.874z M43.839,59.254c-0.559,0.49-1.211,1.196-1.99,1.708
		c-0.725,0.478-1.585,0.75-2.386,1.113c-0.064-0.099-0.128-0.198-0.192-0.297c4.053-1.222,5.12-4.89,6.797-8.11
		c-1.067,0.351-2.025,0.838-2.974,1.34c-1.603,0.849-3.168,1.777-4.812,2.538c-1.101,0.51-2.247,0.051-2.71-1.083
		c2.315,1.34,3.833-0.11,5.566-1.054c-1.784-2.702-1.656-5.203,0.104-7.667c0.282-0.396,0.479-0.852,0.716-1.28
		c-0.716-0.051-1.288,0.049-1.798,0.283c-1.175,0.536-1.722,0.439-2.598-0.581c1.008,0.535,1.872,0.461,2.958-0.007
		c0.704-0.301,1.497-0.497,2.26-0.532c1.176-0.055,1.848-1.163,1.377-2.269c-0.631-1.481-1.844-2.771-1.568-4.742
		c-0.852,1.052-1.693,0.423-2.553,0.259c-1.765-0.338-3.521-0.653-4.983,0.924c-0.514,0.554-1.236,1.011-2.103,0.47
		c-0.101-0.062-0.316,0.061-0.658,0.138c0.434,0.567,0.781,1.019,0.952,1.244c-0.415,0.307-0.813,0.494-1.06,0.802
		c-1.593,1.988-1.83,4.413-2.009,6.808c-0.163,2.166-0.476,4.367,0.411,6.481c0.716,1.707,1.295,3.483,2.15,5.116
		c1.057,2.023,2.069,4.173,3.577,5.834c2.668,2.941,5.978,5.077,9.915,6.095c5.085,1.315,10.13,2.043,15.384,0.636
		c4.532-1.213,7.896-3.526,9.696-7.958c0.416-1.025,1.105-1.947,1.715-2.886c0.759-1.169,0.832-1.978,0.079-2.983
		c-0.642,0.854-1.191,1.741-1.896,2.482c-0.724,0.758-1.61,1.36-2.407,2.052c-0.743,0.646-1.462,1.322-2.191,1.985
		c-0.131-0.289-0.112-0.398-0.052-0.475c1.871-2.354,4.687-3.843,6.033-6.704c0.348-0.738,1.193-0.494,1.548,0.382
		c0.206,0.51,0.348,1.048,0.587,1.788c0.623-0.907,1.299-1.529,1.525-2.288c0.74-2.473,1.437-4.972,1.932-7.505
		c1.147-5.883,1.72-11.881,3.777-17.579c1.246-3.457,2.378-6.952,4.129-10.202c0.101-0.186,0.124-0.414,0.185-0.622
		c-0.567,0.207-0.964,0.512-1.292,0.879c-3.65,4.084-5.74,8.997-7.327,14.136c-1.519,4.916-3.253,9.725-5.811,14.209
		c-1.345,2.359-3.091,4.377-5.479,5.642c-1.877,0.994-3.911,1.755-5.953,2.359c-2.862,0.847-5.795,1.451-8.574,2.129
		c0.329,0.259,0.849,0.667,1.367,1.076c-0.051,0.084-0.102,0.169-0.152,0.254C50.049,62.179,47.044,60.763,43.839,59.254z
		 M65.323,57.542c1.913-0.538,3.009-1.698,3.138-3.623c0.06-0.897,0.271-1.957-0.676-2.525
		C66.937,53.513,66.118,55.557,65.323,57.542z M44.072,52.939c-0.149-0.073-0.505-0.351-0.601-0.279
		c-0.685,0.508-1.328,1.076-1.942,1.668c-0.05,0.047,0.164,0.556,0.334,0.611C42.373,55.107,44.072,53.679,44.072,52.939z"/>
	<path fill-rule="evenodd" clip-rule="evenodd" d="M98.756,13.704c0.49,5.263,0.122,10.714-0.638,16.133
		c-1.094,7.806-1.384,15.595,0.099,23.377c0.271,1.427,0.73,2.818,1.096,4.226c1.187,4.582,1.762,9.219,1.32,13.956
		c-0.24,2.575-0.563,5.146-0.664,7.726c-0.136,3.517,0.834,6.854,2.083,10.101c0.231,0.604,0.528,1.223,1.446,1.271
		c0.741,0.04,0.853,0.646,0.536,1.313c-0.228,0.48-0.572,1.006-0.54,1.492c0.129,1.933-0.225,3.742-1.068,5.469
		c-0.403,0.824-0.936,1.479-2.002,1.372c-0.435-0.045-0.881-0.067-1.311-0.013c-1.674,0.213-2.633-0.802-3.493-1.989
		c-0.658-0.906-1.186-1.938-1.963-2.725c-2.002-2.026-2.796-4.64-3.791-7.179c-0.484-1.234-1.065-2.455-1.79-3.561
		c-1.124-1.713-1.719-3.438-0.919-5.444c0.078-0.197,0.154-0.44,0.111-0.636c-0.512-2.334-0.687-4.827-1.652-6.959
		c-1.853-4.085-2.646-8.147-1.385-12.503c0.879-3.038,1.782-6.069,2.691-9.098c0.741-2.472,1.478-4.945,2.272-7.4
		c0.987-3.047,2.039-6.072,3.053-9.11c1.627-4.883,3.11-9.805,3.516-14.97c0.271-3.447,0.44-6.903,0.711-10.351
		c0.029-0.38,0.427-0.733,0.653-1.098c0.294,0.266,0.771,0.485,0.854,0.805c0.324,1.259,0.559,2.545,0.759,3.833
		C98.829,12.312,98.756,12.906,98.756,13.704z M102.061,92.058c-0.101-0.676-0.126-1.181-0.255-1.658
		c-0.619-2.282-1.344-4.538-1.884-6.837c-0.841-3.581-0.286-7.176,0.137-10.751c0.594-5.019,0.459-10.022-1.045-14.834
		c-1.487-4.76-1.801-9.647-2.306-14.529c-0.497-4.81,0.65-9.51,1.113-14.248c0.597-6.077,0.812-12.136,0.307-18.216
		c-0.079-0.961-0.387-1.903-0.589-2.854c-0.161,0.016-0.321,0.032-0.482,0.048c-0.093,1.208-0.271,2.417-0.261,3.625
		c0.04,4.733-0.574,9.397-1.762,13.952c-0.961,3.69-2.291,7.283-3.45,10.921c-1.437,4.513-2.803,9.05-4.318,13.537
		c-1.272,3.768-2.392,7.516-1.417,11.548c0.04,0.165-0.086,0.369-0.187,0.744c-0.216-0.53-0.354-0.867-0.572-1.399
		c-0.66,3.085-0.807,5.896,0.495,8.658c0.523,1.11,0.949,2.294,1.224,3.489c0.619,2.696,1.117,5.418,1.653,8.131
		c0.039,0.203-0.019,0.426-0.03,0.639c-0.062,0.007-0.125,0.014-0.188,0.02c-0.233-0.458-0.469-0.918-0.813-1.594
		c-0.415,1.552,0.149,2.512,0.802,3.516c0.782,1.205,1.48,2.478,2.083,3.783c1.104,2.392,1.555,5.103,3.583,7.036
		c0.706,0.675,1.336,1.439,1.939,2.211c0.281,0.359,0.345,0.89,0.628,1.248c1.042,1.318,2.507,1.324,3.997,1.175
		c1.115-0.113,1.387-1.088,1.598-1.868c0.521-1.944,0.86-3.937,1.316-6.124C102.768,91.718,102.406,91.892,102.061,92.058z"/>
	<path fill-rule="evenodd" clip-rule="evenodd" d="M52.08,23.236c0.066-2.345,1.277-3.321,3.558-3.502
		c1.799-0.143,3.181,1.556,3.261,3.684c0.079,2.11-1.791,3.607-3.671,3.655C53.509,27.116,52.141,25.449,52.08,23.236z
		 M58.342,23.326c0.015-1.513-1.034-2.759-2.375-2.719c-1.479,0.044-3.126,0.992-3.108,2.705c0.019,1.843,1.088,3.028,2.846,3.027
		C57.189,26.337,58.325,25.04,58.342,23.326z"/>
	<path fill-rule="evenodd" clip-rule="evenodd" d="M109.541,67.008c-0.006-1.893,1.803-3.909,3.539-3.951
		c1.991-0.047,3.694,1.415,3.718,3.191c0.027,2.097-1.983,4.039-4.186,4.044C110.9,70.295,109.545,68.847,109.541,67.008z
		 M112.696,69.623c1.647,0.019,3.516-1.669,3.558-3.212c0.046-1.651-1.372-2.788-3.469-2.781c-1.34,0.005-2.625,1.567-2.66,3.237
		C110.09,68.503,111.118,69.606,112.696,69.623z"/>
	<path fill-rule="evenodd" clip-rule="evenodd" d="M74.272,78.136c-0.021-1.436,1.3-3.053,2.472-3.026
		c1.115,0.024,2.484,1.698,2.491,3.044c0.006,1.232-1.611,2.645-2.997,2.618C75.247,80.752,74.29,79.468,74.272,78.136z
		 M78.74,78.101c0.002-1.185-1.017-2.333-2.09-2.355c-1.003-0.021-1.906,1.188-1.876,2.51c0.025,1.057,0.737,1.794,1.746,1.809
		C77.857,80.084,78.737,79.306,78.74,78.101z"/>
	<path fill-rule="evenodd" clip-rule="evenodd" d="M112.435,80.391c-0.005-1.248,0.985-2.4,2.057-2.394
		c1.318,0.008,1.98,0.774,1.989,2.305c0.009,1.128-0.873,2.083-1.937,2.098C113.306,82.417,112.438,81.593,112.435,80.391z
		 M114.648,78.545c-0.828,0.024-1.606,0.867-1.606,1.743c0,0.803,0.685,1.46,1.475,1.416c0.776-0.042,1.422-0.782,1.346-1.69
		C115.802,79.294,115.682,78.508,114.648,78.545z"/>
	<path fill-rule="evenodd" clip-rule="evenodd" d="M71.085,86.208c0.8,0.004,1.823,0.796,1.832,1.417
		c0.013,0.861-0.961,1.874-1.804,1.876c-0.891,0.003-1.577-0.782-1.6-1.829C69.497,86.9,70.242,86.207,71.085,86.208z
		 M69.728,87.841c0.62,0.492,1.07,1.063,1.302,0.985c0.449-0.149,0.989-0.611,1.101-1.043c0.179-0.697-0.483-0.97-1.048-0.868
		C70.689,86.985,70.357,87.393,69.728,87.841z"/>
	<path fill-rule="evenodd" clip-rule="evenodd" d="M50.653,34.178c0.89-0.007,1.511,0.64,1.529,1.592
		c0.015,0.877-0.688,1.77-1.399,1.775c-0.791,0.005-1.461-0.744-1.492-1.666C49.256,34.866,49.8,34.185,50.653,34.178z
		 M52.041,35.605c-0.573-0.426-1.125-0.958-1.22-0.886c-0.417,0.313-0.871,0.77-0.964,1.242c-0.054,0.274,0.552,0.678,0.86,1.023
		C51.102,36.584,51.486,36.183,52.041,35.605z"/>
	<path fill-rule="evenodd" clip-rule="evenodd" d="M110.312,92.079c-0.941-0.027-1.433-0.643-1.264-1.349
		c0.14-0.586,0.711-1.236,1.264-1.511c0.54-0.269,1.385,0.793,1.36,1.655C111.646,91.758,110.983,91.978,110.312,92.079z
		 M110.331,89.563c-0.346,0.515-0.707,0.813-0.689,1.089c0.019,0.292,0.395,0.562,0.615,0.841c0.266-0.248,0.708-0.473,0.745-0.75
		C111.04,90.462,110.674,90.128,110.331,89.563z"/>
	<path fill-rule="evenodd" clip-rule="evenodd" d="M87.19,104.239c0.145,0.2,0.29,0.4,0.436,0.599
		c-1.109,0.821-2.128,0.776-2.576-0.136c-0.137-0.277-0.166-0.721-0.031-0.978c0.083-0.159,0.601-0.218,0.861-0.134
		c0.473,0.155,0.901,0.45,1.348,0.686C87.226,104.276,87.19,104.239,87.19,104.239z"/>
	<path fill-rule="evenodd" clip-rule="evenodd" d="M45.408,23.644c0.869-0.625,1.592-0.368,1.764,0.628
		c0.019,0.106,0.023,0.216,0.019,0.324c-0.028,0.899-0.282,1.625-1.295,1.856c-0.89,0.202-1.326-0.36-1.526-1.021
		c-0.272-0.904,0.228-1.505,1.077-1.827c-0.14,0.201-0.383,0.391-0.402,0.602c-0.048,0.538-0.089,1.112,0.064,1.611
		c0.057,0.179,0.89,0.363,1.007,0.229c0.322-0.371,0.579-0.893,0.637-1.382C46.868,23.685,46.176,23.567,45.408,23.644z"/>
	<path fill-rule="evenodd" clip-rule="evenodd" d="M13.141,58.7c0.38,2.427,0.762,4.854,1.143,7.282
		c-0.086,0.015-0.172,0.027-0.259,0.042c-0.396-2.431-0.792-4.861-1.188-7.292C12.939,58.722,13.04,58.71,13.141,58.7z"/>
	<path fill-rule="evenodd" clip-rule="evenodd" d="M81.972,93.894c-0.468,0.133-0.936,0.265-1.403,0.398
		c0.038-0.572-0.006-1.171,0.165-1.702c0.05-0.153,0.812-0.278,1.074-0.124c0.603,0.356,0.608,0.93,0.127,1.465
		c0-0.179,0.073-0.414-0.013-0.525c-0.172-0.225-0.413-0.478-0.663-0.524c-0.131-0.024-0.339,0.359-0.513,0.558
		c0.23,0.178,0.442,0.394,0.698,0.515C81.579,94.018,81.793,93.918,81.972,93.894z"/>
	<path fill-rule="evenodd" clip-rule="evenodd" d="M81.261,101.48c0.449-0.03,0.897-0.062,1.347-0.092
		c0.01,0.287,0.019,0.574,0.028,0.863c-0.45-0.017-0.9-0.032-1.351-0.047C81.277,101.963,81.269,101.721,81.261,101.48z"/>
	<path fill-rule="evenodd" clip-rule="evenodd" d="M96.4,94.344c0.389-0.027,0.658-0.082,1.013,0.027
		c0.18,0.232,0.173,0.403,0.18,0.66c-0.391-0.013-0.781-0.027-1.172-0.041C96.414,94.774,96.407,94.559,96.4,94.344z"/>
	<path fill-rule="evenodd" clip-rule="evenodd" d="M100.405,93.686c0.39-0.027,0.658-0.082,1.014,0.027
		c0.179,0.232,0.129,0.304-0.049,0.536c-0.179,0.137-0.466,0.245-0.944,0.083C100.207,94.097,100.411,93.901,100.405,93.686z"/>
	<path fill-rule="evenodd" clip-rule="evenodd" fill="#FFFFFF" d="M81.972,93.894c-0.179,0.024-0.393,0.124-0.527,0.06
		c-0.256-0.121-0.468-0.337-0.698-0.515c0.174-0.198,0.382-0.582,0.513-0.558c0.25,0.047,0.491,0.3,0.663,0.524
		c0.086,0.111,0.013,0.347,0.013,0.525C81.935,93.933,81.972,93.894,81.972,93.894z"/>
	<path fill-rule="evenodd" clip-rule="evenodd" fill="#FFFFFF" d="M65.323,57.542c0.795-1.986,1.613-4.029,2.462-6.147
		c0.946,0.568,0.735,1.628,0.676,2.525C68.332,55.844,67.236,57.004,65.323,57.542z"/>
	<path fill-rule="evenodd" clip-rule="evenodd" fill="#FFFFFF" d="M44.072,52.939c0,0.74-1.699,2.168-2.209,2
		c-0.17-0.055-0.384-0.564-0.334-0.611c0.615-0.592,1.258-1.16,1.942-1.668C43.567,52.588,43.922,52.866,44.072,52.939z"/>
	<path fill-rule="evenodd" clip-rule="evenodd" fill="#FFFFFF" d="M58.342,23.326c-0.017,1.714-1.153,3.011-2.638,3.013
		c-1.758,0.001-2.827-1.184-2.846-3.027c-0.018-1.713,1.63-2.661,3.108-2.705C57.308,20.567,58.357,21.813,58.342,23.326z"/>
	<path fill-rule="evenodd" clip-rule="evenodd" fill="#FFFFFF" d="M112.696,69.623c-1.578-0.017-2.606-1.12-2.571-2.756
		c0.035-1.67,1.32-3.232,2.66-3.237c2.097-0.006,3.515,1.13,3.469,2.781C116.212,67.954,114.344,69.642,112.696,69.623z"/>
	<path fill-rule="evenodd" clip-rule="evenodd" fill="#FFFFFF" d="M78.74,78.101c-0.003,1.205-0.883,1.983-2.22,1.963
		c-1.009-0.015-1.721-0.752-1.746-1.809c-0.03-1.321,0.873-2.531,1.876-2.51C77.724,75.768,78.742,76.916,78.74,78.101z"/>
	<path fill-rule="evenodd" clip-rule="evenodd" fill="#FFFFFF" d="M114.648,78.545c1.033-0.037,1.153,0.749,1.214,1.469
		c0.076,0.908-0.569,1.648-1.346,1.69c-0.79,0.044-1.475-0.613-1.475-1.416C113.042,79.412,113.82,78.569,114.648,78.545z"/>
	<path fill-rule="evenodd" clip-rule="evenodd" fill="#FFFFFF" d="M69.728,87.841c0.63-0.448,0.962-0.855,1.354-0.926
		c0.564-0.102,1.227,0.171,1.048,0.868c-0.111,0.432-0.651,0.894-1.101,1.043C70.798,88.904,70.348,88.333,69.728,87.841z"/>
	<path fill-rule="evenodd" clip-rule="evenodd" fill="#FFFFFF" d="M52.041,35.605c-0.555,0.578-0.939,0.979-1.324,1.38
		c-0.308-0.346-0.914-0.75-0.86-1.023c0.093-0.473,0.547-0.929,0.964-1.242C50.917,34.647,51.468,35.18,52.041,35.605z"/>
	<path fill-rule="evenodd" clip-rule="evenodd" fill="#FFFFFF" d="M110.331,89.563c0.343,0.564,0.709,0.898,0.671,1.18
		c-0.037,0.277-0.479,0.502-0.745,0.75c-0.221-0.279-0.597-0.549-0.615-0.841C109.624,90.377,109.985,90.078,110.331,89.563z"/>
	<path fill-rule="evenodd" clip-rule="evenodd" fill="#FFFFFF" d="M45.408,23.644c0.769-0.077,1.46,0.041,1.344,1.021
		c-0.058,0.489-0.315,1.012-0.637,1.382c-0.117,0.134-0.95-0.05-1.007-0.229c-0.154-0.499-0.112-1.073-0.064-1.611
		c0.02-0.211,0.262-0.401,0.402-0.602C45.445,23.604,45.408,23.644,45.408,23.644z"/>
	<path fill-rule="evenodd" clip-rule="evenodd" d="M40.9,45.065c-0.337-0.287-0.556-0.474-0.774-0.66
		c0.385-0.263,0.745-0.593,1.168-0.753c0.146-0.054,0.45,0.317,0.683,0.494C41.646,44.429,41.312,44.713,40.9,45.065z"/>
	<path fill-rule="evenodd" clip-rule="evenodd" d="M37.971,41.52c0.278,0.336,0.598,0.609,0.554,0.691
		c-0.149,0.284-0.39,0.621-0.664,0.701c-0.19,0.056-0.493-0.282-0.746-0.443C37.358,42.201,37.6,41.932,37.971,41.52z"/>
	<path fill-rule="evenodd" clip-rule="evenodd" d="M41.669,40.82c0.308,0.146,0.598,0.609,0.554,0.692
		c-0.149,0.283-0.39,0.621-0.665,0.7c-0.188,0.055-0.493-0.281-0.745-0.443C41.057,41.501,41.052,41.125,41.669,40.82z"/>
	<path fill-rule="evenodd" clip-rule="evenodd" d="M99.907,96.709c0.388,0.424,0.619,0.679,0.851,0.933
		c-0.397,0.32-0.756,0.771-1.208,0.904c-0.208,0.062-0.599-0.5-0.906-0.779C99.015,97.456,99.386,97.146,99.907,96.709z"/>
	<path fill-rule="evenodd" clip-rule="evenodd" d="M93.737,92.54c0.042-0.53,0.083-1.06,0.125-1.591
		c0.59,0.26,1.181,0.519,1.77,0.778c-0.06,0.142-0.122,0.285-0.185,0.429c-0.333-0.104-0.665-0.208-1.061-0.332
		c-0.071,0.258-0.144,0.515-0.217,0.77C94.026,92.576,93.881,92.558,93.737,92.54z"/>
</g>
</svg>
