<?xml version="1.0" encoding="utf-8"?>
<!-- Generator: Adobe Illustrator 16.0.0, SVG Export Plug-In . SVG Version: 6.00 Build 0)  -->
<!DOCTYPE svg PUBLIC "-//W3C//DTD SVG 1.1//EN" "http://www.w3.org/Graphics/SVG/1.1/DTD/svg11.dtd">
<svg version="1.1" id="Layer_1" xmlns="http://www.w3.org/2000/svg" xmlns:xlink="http://www.w3.org/1999/xlink" x="0px" y="0px"
	 width="300px" height="300px" viewBox="0 0 300 300" enable-background="new 0 0 300 300" xml:space="preserve">
<g>
	<path fill-rule="evenodd" clip-rule="evenodd" d="M205.047,245.177c0.383-3.092-2.665-7.67-6.338-9.387
		c-4.129-1.93-8.252-3.869-12.923-4.202c-0.639-0.045-1.199-0.855-1.849-1.222c-0.826-0.464-1.707-0.835-2.562-1.246
		c-0.263,1.051-0.837,2.144-0.696,3.136c0.128,0.916,1.025,1.723,1.648,2.676c-2.802,0-2.764,0.056-5.782,2.192
		c-7.147,5.058-14.511,9.766-23.687,9.759c-4.637-0.003-9.271-0.624-13.91-0.893c-1.845-0.107-3.701-0.019-5.552-0.019
		c-0.108-0.22-0.216-0.439-0.323-0.66c0.439-0.22,0.878-0.439,1.538-0.771c-4.73-1.721-9.253-3.094-13.547-4.989
		c-8.688-3.833-16.152-9.492-23.171-15.866c-8.679-7.881-17.578-15.523-26.496-23.133c-1.451-1.237-3.496-1.783-5.268-2.643
		c-2.551-1.237-5.104-2.471-7.521-4.339c0.343-0.083,0.686-0.167,1.046-0.255c-2.676-3.62-5.517-7.134-7.998-10.886
		c-5.562-8.403-9.855-17.471-13.343-26.909c-3.979-10.769-7.64-21.669-9.489-33.019c-1.451-8.903-2.209-17.919-3.282-26.883
		c-0.177-1.47-0.399-2.935-0.602-4.401c-0.279-0.056-0.56-0.112-0.838-0.167c-0.437,1.442-1.165,2.865-1.261,4.328
		c-0.587,8.911-1.029,17.83-2.011,26.778c0-2.39-0.119-4.786,0.021-7.167c0.43-7.238,0.853-14.481,1.538-21.697
		c0.143-1.496,1.406-2.885,2.151-4.324c0.671,1.413,1.867,2.804,1.931,4.244c0.58,13.126,2.223,26.098,5.423,38.84
		c4.305,17.147,10.377,33.626,20.067,48.513c3.196,4.91,7.303,9.233,11.1,13.734c0.708,0.84,1.856,1.425,2.915,1.836
		c6.305,2.449,11.382,6.629,16.307,11.117c6.872,6.261,13.764,12.515,20.908,18.459c4.667,3.883,9.481,7.797,14.789,10.658
		c9.523,5.136,19.822,8.434,30.715,9.083c8.105,0.482,15.638-1.634,22.258-6.549c0.788-0.584,1.639-1.116,2.526-1.53
		c3.324-1.548,5.211-4.185,6.14-7.662c0.81-3.032,1.638-3.119,4.206-1.248c1.387,1.011,3.174,1.549,4.853,2.073
		c5.057,1.58,10.041,3.225,14.283,6.629c0.788,0.633,2.36,0.228,3.54,0.455c1.081,0.21,2.125,0.629,3.186,0.954
		c-0.431,0.969-0.632,2.176-1.338,2.862c-1.935,1.88-1.135,3.551,0.077,5.257c2.171,3.057,0.947,6.817-2.785,6.991
		c-4.967,0.23-8.41,3.151-11.75,5.895c-7.123,5.85-13.63,12.446-20.731,18.32c-3.33,2.753-7.361,4.729-11.251,6.714
		c-3.499,1.787-7.119,3.6-10.901,4.489c-3.755,0.883-7.776,0.696-11.686,0.788c-0.462,0.011-1.479-1.344-1.34-1.779
		c0.667-2.104-0.781-1.965-1.998-2.227c-8.33-1.789-16.658-1.771-25.009-0.099c-0.929,0.187-2.131,0.259-2.873-0.179
		c-1.05-0.623-1.945-1.682-2.538-2.758c-0.131-0.24,1.171-1.531,2.007-1.979c1.462-0.786,3.073-1.296,4.286-1.786
		c-8.645-5.864-17.272-11.719-25.9-17.571c-4.29-2.912-8.556-5.861-12.888-8.707c-1.101-0.723-2.37-1.414-3.641-1.612
		c-5.849-0.916-10.851-3.651-15.299-7.307c-1.672-1.373-2.567-3.687-3.816-5.571c0.295-0.338,0.592-0.677,0.889-1.014
		c1.417,0.787,2.837,1.574,5.057,2.806c-17.115-26.918-24.764-56.393-30.404-86.556c0.609,2.143,1.282,4.27,1.812,6.433
		c0.552,2.256,0.926,4.555,1.449,6.819c0.945,4.099,1.823,8.217,2.945,12.267c1.888,6.813,3.523,13.742,6.034,20.33
		c3.339,8.755,7.213,17.323,11.253,25.783c2.186,4.575,5.158,8.778,7.869,13.092c0.423,0.674,1.34,1.038,2.029,1.545
		c0.469-0.789,1.022-1.541,1.387-2.377c0.434-0.997,0.706-2.065,1.364-3.01c1.014,2.781,0.481,5.663-1.273,7.405
		c-1.009,1.001-3.821,0.181-6.415,0.181c3.066,1.868,5.757,4.163,8.868,5.231c3.654,1.253,7.657,1.59,11.542,2.036
		c2.369,0.271,3.714-1.334,4.269-3.631c0.264,0.069,0.525,0.138,0.789,0.208c-0.261,1.498-0.075,3.354-0.91,4.391
		c-0.773,0.963-2.636,1.053-4.234,1.602c2.228,1.482,4.514,2.957,6.751,4.502c7.143,4.934,14.225,9.957,21.418,14.814
		c3.334,2.251,6.826,4.285,10.364,6.2c0.568,0.308,1.975-0.287,2.619-0.874c2.557-2.333,4.84-4.976,7.474-7.209
		c1.879-1.595,4.133-2.758,6.277-4.016c0.417-0.245,1.1-0.035,1.923,0.521c-0.472,0.389-0.899,0.855-1.423,1.154
		c-3.861,2.215-7.728,4.223-10.393,8.174c-2.131,3.163-5.174,5.692-9.177,6.622c-0.82,0.19-1.543,0.8-2.229,1.712
		c6.505,0.346,13.119,0.414,19.171-1.843c6.109-2.279,11.734-5.859,17.57-8.87c0.14,0.23,0.281,0.459,0.421,0.69
		c-4.939,3.014-9.879,6.029-15.431,9.418c2.4,0.629,4.129,1.129,5.882,1.531c5.847,1.34,11.668,3.101,17.767,1.699
		c6.115-1.404,11.691-4.152,16.491-8.064c7.266-5.921,14.135-12.324,21.264-18.417c2.745-2.345,5.738-4.397,9.057-6.918
		c-1.261-0.309-2.3-0.818-3.311-0.768c-4.264,0.214-5.359-0.457-7.189-5.189c0.824,0.59,1.424,0.868,1.812,1.324
		c1.494,1.749,3.34,2.308,5.557,1.891c1.855-0.349,3.409-0.059,4.898,1.397c0.617,0.602,2.591,0.696,3.253,0.162
		c0.918-0.744,1.555-2.277,1.619-3.508c0.062-1.177,0.244-3.167-2.111-2.908L205.047,245.177z"/>
	<path fill-rule="evenodd" clip-rule="evenodd" d="M91.61,121.094c1.411-1.282,2.515-2.306,3.642-3.305
		c2.55-2.257,3.853-1.946,5.086,1.254c1.196-0.285,2.393-0.723,3.612-0.805c0.781-0.052,1.827,0.211,2.309,0.74
		c0.3,0.33-0.068,1.502-0.414,2.147c-1.565,2.917-3.256,5.766-4.854,8.666c-1.638,2.973-1.298,2.893,1.583,4.849
		c10.757,7.302,21.831,5.288,33.036,1.58c2.725-0.901,5.403-1.942,8.142-2.797c2.791-0.871,5.091-2.359,6.328-5.044
		c1.938-4.201,4.721-8.076,4.901-12.985c0.033-0.914,0.801-2.232,1.564-2.546c0.578-0.238,1.796,0.706,2.548,1.336
		c2.678,2.24,1.817,5.162,1.227,8.008c0.365,0.306,0.729,0.613,1.095,0.919c0.288-0.745,0.443-1.584,0.888-2.219
		c7.79-11.107,13.043-23.339,17.014-36.289c3.515-11.461,7.688-22.75,15.017-32.506c1.987-2.646,4.066-5.224,6.104-7.833
		c0.11-0.142,0.189-0.353,0.333-0.416c1.247-0.543,2.506-1.059,3.762-1.583c-0.059,1.32,0.358,2.936-0.249,3.915
		c-6.57,10.566-10.479,22.26-13.644,34.093c-2.697,10.088-3.903,20.569-5.91,30.849c-1.39,7.116-2.812,14.239-4.652,21.245
		c-0.628,2.393-2.499,4.491-3.938,6.634c-3.494,5.204-7.411,10.156-10.523,15.575c-3.936,6.854-9.632,11.23-16.882,13.771
		c-4.139,1.449-8.336,3.188-12.627,3.63c-6.006,0.618-12.186,0.691-18.181,0.017c-8.925-1.004-17.832-2.945-25.548-7.776
		c-5.649-3.538-11.437-7.383-15.845-12.276c-10.931-12.136-15.849-26.687-13.854-43.109c0.71-5.841,1.859-11.688,5.159-16.846
		c0.652-1.018,0.655-2.54,0.7-3.839c0.086-2.472,1.075-3.131,3.425-2.384c0.938,0.298,2.378,0.458,3.039-0.043
		c5.161-3.92,10.584-4.879,16.645-2.286c0.648,0.277,1.833-0.642,2.744-1.059c1.444-0.663,2.68-0.686,2.333,1.34
		c-0.691,4.056,2.1,6.85,3.598,10.03c1.288,2.733,0.735,7.175-2.135,8.218c-5.202,1.891-6.462,6.54-8.035,10.906
		C89.191,115.535,89.511,118.314,91.61,121.094z M98.233,134.338c-1.376,1.208-2.981,2.944-4.898,4.206
		c-1.785,1.176-3.903,1.845-5.875,2.738c-0.158-0.243-0.314-0.487-0.472-0.73c9.978-3.008,12.605-12.037,16.733-19.966
		c-2.626,0.864-4.983,2.063-7.319,3.3c-3.946,2.09-7.801,4.376-11.848,6.248c-2.711,1.255-5.531,0.126-6.672-2.667
		c5.7,3.3,9.436-0.268,13.704-2.595c-4.393-6.651-4.077-12.808,0.254-18.875c0.694-0.973,1.181-2.097,1.763-3.15
		c-1.763-0.124-3.168,0.122-4.425,0.695c-2.894,1.32-4.237,1.083-6.397-1.43c2.483,1.319,4.61,1.137,7.284-0.013
		c1.731-0.745,3.687-1.224,5.565-1.312c2.894-0.135,4.549-2.863,3.39-5.585c-1.554-3.648-4.541-6.821-3.861-11.674
		c-2.097,2.59-4.169,1.042-6.284,0.636c-4.346-0.832-8.669-1.608-12.269,2.275c-1.265,1.364-3.045,2.49-5.178,1.158
		c-0.247-0.154-0.777,0.149-1.617,0.34c1.067,1.395,1.921,2.508,2.343,3.061c-1.022,0.756-2.003,1.215-2.61,1.974
		c-3.922,4.894-4.502,10.864-4.944,16.761c-0.401,5.33-1.172,10.75,1.012,15.954c1.764,4.202,3.188,8.575,5.291,12.597
		c2.603,4.981,5.094,10.274,8.808,14.365c6.569,7.238,14.717,12.497,24.409,15.003c12.52,3.235,24.94,5.027,37.873,1.564
		c11.157-2.987,19.437-8.681,23.87-19.59c1.026-2.525,2.723-4.794,4.224-7.106c1.867-2.877,2.048-4.87,0.193-7.345
		c-1.578,2.102-2.933,4.289-4.669,6.109c-1.781,1.868-3.965,3.348-5.925,5.053c-1.831,1.592-3.6,3.255-5.396,4.888
		c-0.32-0.711-0.275-0.979-0.128-1.166c4.606-5.797,11.538-9.462,14.854-16.505c0.856-1.818,2.938-1.216,3.81,0.938
		c0.51,1.256,0.856,2.579,1.446,4.402c1.532-2.231,3.197-3.765,3.755-5.629c1.822-6.09,3.538-12.242,4.754-18.476
		c2.827-14.486,4.235-29.25,9.3-43.278c3.07-8.509,5.854-17.113,10.166-25.113c0.247-0.459,0.305-1.019,0.453-1.532
		c-1.395,0.508-2.372,1.26-3.181,2.165c-8.984,10.054-14.13,22.149-18.037,34.8c-3.737,12.102-8.007,23.941-14.305,34.984
		c-3.31,5.805-7.61,10.776-13.487,13.887c-4.621,2.447-9.629,4.323-14.655,5.81c-7.045,2.084-14.267,3.573-21.106,5.242
		c0.811,0.638,2.088,1.644,3.365,2.649c-0.125,0.208-0.25,0.417-0.375,0.625C113.521,141.54,106.125,138.056,98.233,134.338z
		 M151.124,130.125c4.712-1.323,7.41-4.181,7.726-8.917c0.147-2.209,0.666-4.819-1.664-6.216
		C155.096,120.207,153.082,125.236,151.124,130.125z M98.807,118.792c-0.367-0.18-1.242-0.863-1.479-0.686
		c-1.685,1.251-3.268,2.649-4.781,4.106c-0.122,0.118,0.404,1.37,0.822,1.506C94.626,124.13,98.807,120.613,98.807,118.792z"/>
	<path fill-rule="evenodd" clip-rule="evenodd" d="M233.432,22.201c1.208,12.957,0.302,26.377-1.568,39.717
		c-2.693,19.216-3.409,38.392,0.242,57.551c0.669,3.512,1.798,6.936,2.695,10.404c2.923,11.279,4.34,22.697,3.251,34.357
		c-0.592,6.338-1.386,12.668-1.633,19.02c-0.335,8.657,2.052,16.869,5.126,24.866c0.572,1.484,1.304,3.008,3.561,3.129
		c1.824,0.098,2.099,1.588,1.321,3.232c-0.561,1.184-1.408,2.479-1.329,3.672c0.318,4.758-0.555,9.217-2.631,13.464
		c-0.993,2.03-2.304,3.644-4.93,3.379c-1.067-0.107-2.167-0.166-3.225-0.03c-4.121,0.525-6.481-1.975-8.601-4.896
		c-1.62-2.233-2.918-4.771-4.83-6.707c-4.93-4.991-6.886-11.423-9.336-17.676c-1.191-3.035-2.621-6.045-4.406-8.764
		c-2.767-4.218-4.231-8.464-2.263-13.403c0.194-0.487,0.381-1.086,0.275-1.567c-1.26-5.747-1.69-11.883-4.07-17.132
		c-4.559-10.058-6.51-20.057-3.407-30.781c2.164-7.479,4.387-14.941,6.625-22.397c1.826-6.084,3.639-12.175,5.597-18.218
		c2.431-7.5,5.02-14.948,7.513-22.427c4.008-12.021,7.657-24.137,8.657-36.854c0.666-8.487,1.083-16.993,1.748-25.481
		c0.074-0.937,1.051-1.804,1.608-2.704c0.727,0.654,1.899,1.193,2.104,1.982c0.801,3.1,1.375,6.266,1.867,9.434
		C233.611,18.774,233.432,20.237,233.432,22.201z M241.569,215.098c-0.249-1.665-0.312-2.909-0.629-4.084
		c-1.523-5.617-3.308-11.169-4.639-16.83c-2.069-8.815-0.704-17.666,0.337-26.467c1.461-12.354,1.13-24.674-2.571-36.521
		c-3.662-11.718-4.434-23.749-5.676-35.767c-1.226-11.842,1.6-23.414,2.741-35.077c1.468-14.961,1.999-29.877,0.754-44.846
		c-0.195-2.367-0.953-4.687-1.45-7.028c-0.397,0.04-0.793,0.08-1.188,0.12c-0.227,2.975-0.665,5.951-0.64,8.923
		c0.097,11.652-1.414,23.135-4.338,34.348c-2.366,9.083-5.642,17.93-8.494,26.887c-3.538,11.11-6.901,22.28-10.632,33.325
		c-3.132,9.275-5.89,18.505-3.488,28.428c0.099,0.406-0.213,0.912-0.457,1.831c-0.532-1.303-0.873-2.134-1.411-3.444
		c-1.624,7.596-1.986,14.516,1.22,21.316c1.289,2.734,2.337,5.648,3.012,8.592c1.522,6.635,2.751,13.337,4.069,20.017
		c0.097,0.499-0.045,1.046-0.073,1.571c-0.154,0.017-0.308,0.032-0.462,0.049c-0.575-1.13-1.153-2.261-2.003-3.924
		c-1.021,3.821,0.367,6.182,1.974,8.655c1.927,2.964,3.646,6.101,5.128,9.312c2.716,5.891,3.828,12.562,8.82,17.323
		c1.74,1.66,3.29,3.541,4.775,5.441c0.692,0.887,0.848,2.192,1.545,3.073c2.566,3.244,6.172,3.262,9.843,2.891
		c2.743-0.276,3.414-2.678,3.931-4.6c1.283-4.784,2.119-9.69,3.244-15.073C243.309,214.261,242.418,214.688,241.569,215.098z"/>
	<path fill-rule="evenodd" clip-rule="evenodd" d="M118.521,45.668c0.164-5.773,3.146-8.175,8.76-8.623
		c4.428-0.353,7.831,3.83,8.029,9.07c0.194,5.196-4.409,8.879-9.038,8.998C122.041,55.22,118.672,51.116,118.521,45.668z
		 M133.938,45.889c0.036-3.724-2.544-6.792-5.848-6.693c-3.64,0.108-7.695,2.442-7.652,6.659c0.046,4.538,2.68,7.456,7.005,7.452
		C131.1,53.303,133.896,50.109,133.938,45.889z"/>
	<path fill-rule="evenodd" clip-rule="evenodd" d="M259.982,153.426c-0.013-4.657,4.438-9.622,8.715-9.724
		c4.9-0.116,9.095,3.482,9.151,7.854c0.067,5.164-4.882,9.947-10.304,9.958C263.328,161.521,259.994,157.955,259.982,153.426z
		 M267.751,159.866c4.057,0.045,8.657-4.108,8.761-7.908c0.109-4.064-3.381-6.861-8.541-6.845c-3.299,0.011-6.462,3.858-6.55,7.971
		C261.335,157.11,263.867,159.824,267.751,159.866z"/>
	<path fill-rule="evenodd" clip-rule="evenodd" d="M173.156,180.824c-0.049-3.537,3.202-7.516,6.088-7.453
		c2.744,0.062,6.113,4.185,6.131,7.497c0.014,3.032-3.968,6.508-7.379,6.443C175.559,187.265,173.201,184.104,173.156,180.824z
		 M184.156,180.734c0.006-2.913-2.503-5.743-5.146-5.799c-2.468-0.052-4.693,2.929-4.617,6.181c0.062,2.602,1.813,4.417,4.297,4.453
		C181.984,185.619,184.149,183.704,184.156,180.734z"/>
	<path fill-rule="evenodd" clip-rule="evenodd" d="M267.106,186.376c-0.012-3.074,2.426-5.912,5.063-5.895
		c3.246,0.021,4.875,1.907,4.899,5.675c0.019,2.778-2.151,5.127-4.77,5.164C269.25,191.365,267.119,189.335,267.106,186.376z
		 M272.558,181.833c-2.039,0.057-3.954,2.132-3.955,4.288c0,1.978,1.684,3.595,3.63,3.488c1.911-0.106,3.5-1.927,3.313-4.165
		C275.397,183.674,275.102,181.741,272.558,181.833z"/>
	<path fill-rule="evenodd" clip-rule="evenodd" d="M165.312,200.698c1.968,0.007,4.488,1.956,4.51,3.485
		c0.03,2.12-2.367,4.614-4.44,4.62c-2.192,0.008-3.884-1.928-3.94-4.505C161.4,202.399,163.236,200.691,165.312,200.698z
		 M161.969,204.715c1.527,1.211,2.635,2.619,3.206,2.429c1.104-0.37,2.434-1.507,2.708-2.572c0.439-1.713-1.19-2.385-2.579-2.135
		C164.336,202.611,163.518,203.61,161.969,204.715z"/>
	<path fill-rule="evenodd" clip-rule="evenodd" d="M115.009,72.605c2.19-0.019,3.72,1.575,3.763,3.92
		c0.039,2.159-1.693,4.356-3.443,4.369c-1.944,0.014-3.597-1.831-3.673-4.1C111.57,74.297,112.911,72.623,115.009,72.605z
		 M118.427,76.12c-1.41-1.048-2.769-2.36-3.005-2.182c-1.023,0.771-2.143,1.895-2.373,3.059c-0.132,0.675,1.358,1.669,2.117,2.52
		C116.113,78.529,117.061,77.542,118.427,76.12z"/>
	<path fill-rule="evenodd" clip-rule="evenodd" d="M261.88,215.149c-2.317-0.068-3.524-1.581-3.11-3.319
		c0.344-1.443,1.749-3.044,3.11-3.72c1.331-0.662,3.409,1.951,3.35,4.075C265.168,214.358,263.533,214.899,261.88,215.149z
		 M261.929,208.956c-0.853,1.268-1.74,2.003-1.698,2.681c0.046,0.719,0.973,1.382,1.516,2.069c0.653-0.609,1.744-1.161,1.836-1.846
		C263.674,211.169,262.773,210.346,261.929,208.956z"/>
	<path fill-rule="evenodd" clip-rule="evenodd" d="M204.958,245.088c0.357,0.49,0.716,0.982,1.074,1.474
		c-2.731,2.021-5.24,1.907-6.344-0.334c-0.336-0.685-0.407-1.776-0.076-2.409c0.205-0.394,1.478-0.536,2.119-0.328
		c1.167,0.381,2.221,1.106,3.318,1.687C205.047,245.177,204.958,245.088,204.958,245.088z"/>
	<path fill-rule="evenodd" clip-rule="evenodd" d="M102.097,46.672c2.138-1.537,3.918-0.905,4.343,1.547
		c0.046,0.261,0.055,0.532,0.046,0.797c-0.07,2.213-0.695,4.003-3.19,4.57c-2.191,0.499-3.265-0.886-3.757-2.514
		c-0.671-2.225,0.562-3.705,2.65-4.497c-0.346,0.494-0.942,0.963-0.989,1.481c-0.118,1.323-0.222,2.739,0.158,3.966
		c0.138,0.44,2.19,0.894,2.478,0.564c0.795-0.913,1.427-2.198,1.569-3.402C105.69,46.772,103.988,46.483,102.097,46.672z"/>
	<path fill-rule="evenodd" clip-rule="evenodd" d="M22.66,132.974c0.937,5.976,1.875,11.952,2.814,17.928
		c-0.212,0.035-0.425,0.068-0.637,0.104c-0.975-5.984-1.949-11.967-2.924-17.95C22.163,133.028,22.411,133,22.66,132.974z"/>
	<path fill-rule="evenodd" clip-rule="evenodd" d="M192.111,219.617c-1.152,0.327-2.303,0.653-3.455,0.981
		c0.094-1.41-0.015-2.884,0.407-4.188c0.122-0.379,1.998-0.688,2.645-0.307c1.482,0.878,1.497,2.286,0.312,3.606
		c0.001-0.442,0.182-1.021-0.032-1.298c-0.422-0.551-1.016-1.173-1.631-1.288c-0.321-0.062-0.833,0.883-1.262,1.373
		c0.567,0.436,1.089,0.968,1.719,1.268C191.146,219.924,191.673,219.679,192.111,219.617z"/>
	<path fill-rule="evenodd" clip-rule="evenodd" d="M190.361,238.295c1.105-0.076,2.21-0.15,3.315-0.226
		c0.023,0.707,0.046,1.415,0.07,2.124c-1.109-0.039-2.218-0.078-3.326-0.116C190.401,239.482,190.382,238.889,190.361,238.295z"/>
	<path fill-rule="evenodd" clip-rule="evenodd" d="M227.633,220.724c0.958-0.067,1.62-0.201,2.495,0.068
		c0.442,0.572,0.423,0.994,0.442,1.627c-0.963-0.034-1.925-0.068-2.887-0.103C227.667,221.785,227.65,221.255,227.633,220.724z"/>
	<path fill-rule="evenodd" clip-rule="evenodd" d="M237.492,219.106c0.959-0.067,1.62-0.202,2.496,0.067
		c0.441,0.572,0.318,0.746-0.12,1.315c-0.439,0.339-1.146,0.605-2.324,0.21C237.003,220.118,237.509,219.638,237.492,219.106z"/>
	<path fill-rule="evenodd" clip-rule="evenodd" fill="#FFFFFF" d="M192.111,219.617c-0.438,0.062-0.965,0.307-1.298,0.147
		c-0.63-0.3-1.151-0.832-1.719-1.268c0.429-0.49,0.94-1.435,1.262-1.373c0.615,0.115,1.209,0.737,1.631,1.288
		c0.214,0.277,0.033,0.855,0.032,1.298C192.021,219.711,192.111,219.617,192.111,219.617z"/>
	<path fill-rule="evenodd" clip-rule="evenodd" fill="#FFFFFF" d="M151.124,130.125c1.958-4.889,3.972-9.918,6.062-15.133
		c2.33,1.397,1.812,4.006,1.664,6.216C158.534,125.944,155.836,128.802,151.124,130.125z"/>
	<path fill-rule="evenodd" clip-rule="evenodd" fill="#FFFFFF" d="M98.807,118.792c0,1.822-4.181,5.338-5.438,4.926
		c-0.418-0.136-0.944-1.388-0.822-1.506c1.514-1.457,3.097-2.854,4.781-4.106C97.564,117.929,98.439,118.611,98.807,118.792z"/>
	<path fill-rule="evenodd" clip-rule="evenodd" fill="#FFFFFF" d="M133.938,45.889c-0.042,4.22-2.839,7.414-6.495,7.417
		c-4.325,0.004-6.959-2.914-7.005-7.452c-0.043-4.216,4.013-6.55,7.652-6.659C131.395,39.097,133.975,42.165,133.938,45.889z"/>
	<path fill-rule="evenodd" clip-rule="evenodd" fill="#FFFFFF" d="M267.751,159.866c-3.884-0.042-6.416-2.756-6.33-6.782
		c0.088-4.113,3.251-7.96,6.55-7.971c5.16-0.016,8.65,2.781,8.541,6.845C276.408,155.758,271.808,159.911,267.751,159.866z"/>
	<path fill-rule="evenodd" clip-rule="evenodd" fill="#FFFFFF" d="M184.156,180.734c-0.007,2.97-2.172,4.885-5.466,4.835
		c-2.483-0.036-4.234-1.852-4.297-4.453c-0.076-3.252,2.149-6.232,4.617-6.181C181.653,174.991,184.162,177.821,184.156,180.734z"/>
	<path fill-rule="evenodd" clip-rule="evenodd" fill="#FFFFFF" d="M272.558,181.833c2.544-0.092,2.84,1.841,2.988,3.611
		c0.187,2.238-1.402,4.059-3.313,4.165c-1.946,0.106-3.63-1.511-3.63-3.488C268.604,183.965,270.519,181.89,272.558,181.833z"/>
	<path fill-rule="evenodd" clip-rule="evenodd" fill="#FFFFFF" d="M161.969,204.715c1.549-1.104,2.367-2.104,3.335-2.278
		c1.389-0.25,3.019,0.422,2.579,2.135c-0.274,1.065-1.604,2.202-2.708,2.572C164.604,207.334,163.496,205.926,161.969,204.715z"/>
	<path fill-rule="evenodd" clip-rule="evenodd" fill="#FFFFFF" d="M118.427,76.12c-1.366,1.422-2.313,2.41-3.261,3.397
		c-0.759-0.851-2.249-1.845-2.117-2.52c0.23-1.164,1.35-2.287,2.373-3.059C115.658,73.76,117.017,75.071,118.427,76.12z"/>
	<path fill-rule="evenodd" clip-rule="evenodd" fill="#FFFFFF" d="M261.929,208.956c0.845,1.39,1.745,2.213,1.653,2.904
		c-0.092,0.685-1.183,1.236-1.836,1.846c-0.543-0.688-1.47-1.351-1.516-2.069C260.188,210.959,261.076,210.224,261.929,208.956z"/>
	<path fill-rule="evenodd" clip-rule="evenodd" fill="#FFFFFF" d="M102.097,46.672c1.892-0.188,3.594,0.101,3.308,2.513
		c-0.143,1.204-0.774,2.49-1.569,3.402c-0.287,0.33-2.34-0.124-2.478-0.564c-0.38-1.227-0.276-2.643-0.158-3.966
		c0.047-0.518,0.644-0.987,0.989-1.481C102.188,46.575,102.097,46.672,102.097,46.672z"/>
	<path fill-rule="evenodd" clip-rule="evenodd" d="M90.999,99.408c-0.83-0.707-1.367-1.167-1.905-1.625
		c0.947-0.648,1.833-1.459,2.876-1.854c0.357-0.135,1.109,0.779,1.683,1.213C92.833,97.842,92.014,98.542,90.999,99.408z"/>
	<path fill-rule="evenodd" clip-rule="evenodd" d="M83.789,90.679c0.685,0.829,1.471,1.501,1.364,1.703
		c-0.367,0.698-0.959,1.528-1.635,1.725c-0.467,0.136-1.214-0.693-1.834-1.091C82.279,92.355,82.874,91.694,83.789,90.679z"/>
	<path fill-rule="evenodd" clip-rule="evenodd" d="M92.893,88.958c0.76,0.359,1.472,1.501,1.365,1.703
		c-0.367,0.698-0.96,1.528-1.636,1.725c-0.466,0.136-1.213-0.693-1.833-1.09C91.384,90.634,91.372,89.708,92.893,88.958z"/>
	<path fill-rule="evenodd" clip-rule="evenodd" d="M236.268,226.548c0.953,1.046,1.522,1.671,2.093,2.296
		c-0.979,0.79-1.861,1.897-2.974,2.226c-0.512,0.151-1.475-1.23-2.231-1.917C234.068,228.388,234.982,227.624,236.268,226.548z"/>
	<path fill-rule="evenodd" clip-rule="evenodd" d="M221.078,216.284c0.103-1.306,0.205-2.61,0.307-3.915
		c1.453,0.639,2.906,1.276,4.357,1.914c-0.149,0.352-0.303,0.704-0.454,1.056c-0.82-0.257-1.64-0.513-2.611-0.817
		c-0.178,0.635-0.354,1.266-0.534,1.896C221.788,216.373,221.432,216.327,221.078,216.284z"/>
</g>
</svg>
