<?xml version="1.0" encoding="utf-8"?>
<!-- Generator: Adobe Illustrator 16.0.0, SVG Export Plug-In . SVG Version: 6.00 Build 0)  -->
<!DOCTYPE svg PUBLIC "-//W3C//DTD SVG 1.1//EN" "http://www.w3.org/Graphics/SVG/1.1/DTD/svg11.dtd">
<svg version="1.1" id="Layer_1" xmlns="http://www.w3.org/2000/svg" xmlns:xlink="http://www.w3.org/1999/xlink" x="0px" y="0px"
	 width="150px" height="150px" viewBox="0 0 150 150" enable-background="new 0 0 150 150" xml:space="preserve">
<g>
	<path fill-rule="evenodd" clip-rule="evenodd" d="M102.406,120.751c0.188-1.521-1.311-3.772-3.117-4.616
		c-2.03-0.949-4.058-1.903-6.354-2.066c-0.314-0.022-0.59-0.421-0.909-0.602c-0.406-0.228-0.84-0.41-1.26-0.612
		c-0.13,0.517-0.412,1.054-0.343,1.542c0.062,0.45,0.504,0.848,0.811,1.316c-1.378,0-1.359,0.027-2.844,1.078
		c-3.515,2.487-7.136,4.802-11.648,4.799c-2.28-0.002-4.56-0.307-6.841-0.439c-0.907-0.053-1.82-0.009-2.73-0.009
		c-0.053-0.108-0.105-0.216-0.158-0.324c0.216-0.108,0.432-0.217,0.756-0.379c-2.326-0.847-4.55-1.521-6.662-2.454
		c-4.272-1.885-7.943-4.668-11.395-7.803c-4.269-3.875-8.645-7.634-13.03-11.376c-0.714-0.608-1.72-0.877-2.591-1.3
		c-1.254-0.608-2.51-1.215-3.698-2.134c0.169-0.04,0.337-0.082,0.515-0.125c-1.316-1.78-2.713-3.508-3.934-5.354
		c-2.734-4.133-4.847-8.592-6.562-13.233c-1.956-5.296-3.757-10.656-4.667-16.238c-0.713-4.378-1.086-8.812-1.613-13.221
		c-0.088-0.723-0.197-1.443-0.296-2.165c-0.138-0.027-0.275-0.055-0.412-0.082c-0.215,0.709-0.573,1.409-0.62,2.128
		c-0.289,4.382-0.507,8.768-0.989,13.169c0-1.175-0.059-2.354,0.011-3.525c0.211-3.56,0.419-7.121,0.757-10.67
		c0.069-0.736,0.691-1.419,1.058-2.126c0.33,0.695,0.918,1.378,0.949,2.087c0.285,6.455,1.094,12.834,2.667,19.101
		c2.117,8.433,5.104,16.537,9.869,23.857c1.571,2.415,3.591,4.541,5.458,6.755c0.349,0.413,0.913,0.7,1.434,0.902
		c3.101,1.205,5.598,3.26,8.02,5.468c3.379,3.078,6.769,6.154,10.282,9.077c2.295,1.909,4.662,3.835,7.272,5.241
		c4.684,2.526,9.748,4.147,15.105,4.467c3.985,0.237,7.689-0.803,10.945-3.22c0.388-0.287,0.807-0.55,1.242-0.753
		c1.635-0.761,2.562-2.058,3.02-3.768c0.398-1.491,0.806-1.534,2.068-0.614c0.683,0.497,1.562,0.762,2.387,1.02
		c2.486,0.777,4.938,1.586,7.024,3.26c0.388,0.312,1.16,0.112,1.741,0.224c0.531,0.104,1.045,0.31,1.566,0.47
		c-0.212,0.477-0.311,1.07-0.658,1.407c-0.951,0.925-0.559,1.746,0.038,2.586c1.067,1.503,0.466,3.353-1.37,3.438
		c-2.442,0.113-4.136,1.55-5.778,2.899c-3.503,2.876-6.703,6.12-10.195,9.009c-1.638,1.354-3.62,2.326-5.533,3.302
		c-1.721,0.879-3.501,1.771-5.36,2.208c-1.847,0.435-3.824,0.343-5.747,0.388c-0.228,0.005-0.728-0.661-0.659-0.875
		c0.328-1.035-0.384-0.967-0.982-1.095c-4.097-0.88-8.192-0.872-12.299-0.049c-0.457,0.092-1.048,0.127-1.413-0.088
		c-0.516-0.307-0.956-0.827-1.248-1.356c-0.064-0.118,0.576-0.753,0.987-0.974c0.719-0.387,1.512-0.637,2.107-0.878
		c-4.251-2.884-8.494-5.764-12.737-8.642c-2.109-1.432-4.207-2.882-6.338-4.281c-0.541-0.355-1.165-0.696-1.79-0.793
		c-2.876-0.451-5.336-1.796-7.523-3.594c-0.822-0.675-1.263-1.812-1.877-2.739c0.145-0.167,0.291-0.333,0.438-0.499
		c0.696,0.387,1.395,0.774,2.486,1.38c-8.417-13.237-12.179-27.732-14.952-42.566c0.3,1.054,0.631,2.1,0.891,3.164
		c0.271,1.109,0.455,2.239,0.713,3.354c0.465,2.016,0.896,4.04,1.448,6.032c0.929,3.351,1.732,6.758,2.968,9.998
		c1.642,4.305,3.547,8.519,5.534,12.68c1.074,2.25,2.536,4.316,3.869,6.438c0.208,0.332,0.659,0.511,0.998,0.76
		c0.23-0.388,0.503-0.758,0.683-1.169c0.213-0.49,0.347-1.016,0.671-1.479c0.498,1.367,0.236,2.785-0.627,3.642
		c-0.496,0.492-1.879,0.089-3.154,0.089c1.508,0.919,2.831,2.047,4.361,2.572c1.797,0.616,3.766,0.782,5.676,1.002
		c1.165,0.133,1.826-0.656,2.1-1.786c0.129,0.034,0.258,0.068,0.388,0.103c-0.128,0.736-0.037,1.649-0.447,2.159
		c-0.381,0.474-1.297,0.518-2.083,0.788c1.096,0.729,2.22,1.454,3.32,2.214c3.513,2.426,6.995,4.896,10.533,7.285
		c1.639,1.106,3.356,2.107,5.097,3.049c0.279,0.151,0.971-0.141,1.288-0.43c1.257-1.147,2.38-2.447,3.675-3.545
		c0.925-0.784,2.032-1.356,3.087-1.975c0.205-0.121,0.541-0.018,0.946,0.256c-0.232,0.191-0.442,0.421-0.7,0.567
		c-1.898,1.09-3.8,2.077-5.11,4.021c-1.048,1.556-2.545,2.799-4.513,3.256c-0.404,0.094-0.76,0.394-1.097,0.843
		c3.199,0.17,6.452,0.203,9.428-0.906c3.005-1.121,5.771-2.882,8.642-4.362c0.068,0.113,0.138,0.226,0.206,0.339
		c-2.429,1.482-4.858,2.966-7.588,4.632c1.181,0.31,2.03,0.556,2.893,0.753c2.875,0.659,5.737,1.525,8.737,0.836
		c3.007-0.69,5.749-2.042,8.109-3.966c3.573-2.912,6.951-6.061,10.457-9.058c1.351-1.152,2.822-2.162,4.454-3.401
		c-0.62-0.152-1.131-0.403-1.628-0.378c-2.097,0.105-2.636-0.225-3.535-2.552c0.404,0.29,0.699,0.427,0.891,0.651
		c0.735,0.859,1.643,1.135,2.732,0.93c0.913-0.172,1.677-0.029,2.409,0.687c0.304,0.296,1.274,0.343,1.6,0.08
		c0.452-0.366,0.765-1.12,0.797-1.725c0.03-0.579,0.12-1.558-1.038-1.431L102.406,120.751z"/>
	<path fill-rule="evenodd" clip-rule="evenodd" d="M46.621,59.729c0.693-0.63,1.236-1.134,1.791-1.625
		c1.254-1.11,1.895-0.957,2.501,0.617c0.588-0.14,1.177-0.355,1.776-0.396c0.384-0.026,0.898,0.104,1.135,0.364
		c0.147,0.162-0.033,0.739-0.203,1.056c-0.77,1.434-1.602,2.835-2.387,4.261c-0.806,1.462-0.639,1.423,0.778,2.385
		c5.29,3.591,10.736,2.601,16.246,0.777c1.34-0.443,2.657-0.955,4.004-1.375c1.373-0.428,2.504-1.16,3.112-2.48
		c0.953-2.066,2.321-3.972,2.41-6.386c0.017-0.45,0.395-1.098,0.77-1.252c0.284-0.117,0.883,0.347,1.253,0.657
		c1.317,1.102,0.894,2.539,0.604,3.938c0.18,0.15,0.358,0.301,0.538,0.452c0.142-0.366,0.218-0.779,0.437-1.092
		c3.831-5.462,6.414-11.478,8.367-17.846c1.729-5.636,3.781-11.188,7.385-15.986c0.978-1.301,2-2.569,3.002-3.852
		c0.054-0.069,0.093-0.173,0.164-0.204c0.613-0.267,1.232-0.521,1.85-0.779c-0.028,0.649,0.177,1.444-0.122,1.925
		c-3.231,5.196-5.154,10.947-6.71,16.766c-1.326,4.961-1.92,10.116-2.906,15.171c-0.684,3.5-1.383,7.002-2.288,10.448
		c-0.309,1.177-1.229,2.209-1.937,3.262c-1.718,2.559-3.645,4.995-5.175,7.66c-1.936,3.37-4.737,5.522-8.303,6.771
		c-2.035,0.713-4.1,1.567-6.209,1.785c-2.954,0.304-5.993,0.34-8.941,0.008c-4.389-0.493-8.77-1.448-12.563-3.824
		c-2.778-1.739-5.624-3.63-7.792-6.037c-5.376-5.968-7.794-13.124-6.813-21.2c0.349-2.873,0.914-5.748,2.537-8.285
		c0.32-0.5,0.322-1.249,0.345-1.888c0.042-1.215,0.528-1.54,1.684-1.172c0.461,0.147,1.17,0.226,1.495-0.021
		c2.538-1.928,5.204-2.399,8.185-1.124c0.319,0.136,0.902-0.315,1.35-0.521c0.711-0.326,1.318-0.337,1.147,0.659
		c-0.34,1.994,1.032,3.369,1.77,4.932c0.634,1.344,0.361,3.529-1.05,4.042c-2.559,0.93-3.178,3.216-3.951,5.363
		C45.432,56.996,45.588,58.362,46.621,59.729z M49.878,66.243c-0.677,0.594-1.466,1.448-2.409,2.068
		c-0.878,0.578-1.919,0.908-2.889,1.347c-0.078-0.12-0.155-0.24-0.232-0.359c4.907-1.479,6.199-5.919,8.229-9.819
		c-1.292,0.425-2.451,1.014-3.6,1.623c-1.94,1.027-3.836,2.152-5.826,3.072c-1.333,0.617-2.721,0.062-3.281-1.312
		c2.803,1.623,4.64-0.132,6.739-1.276c-2.16-3.271-2.005-6.299,0.125-9.283c0.342-0.479,0.58-1.031,0.867-1.549
		c-0.867-0.061-1.559,0.06-2.177,0.342c-1.423,0.649-2.084,0.532-3.146-0.703c1.221,0.648,2.267,0.559,3.582-0.007
		c0.852-0.366,1.812-0.602,2.736-0.645c1.424-0.067,2.237-1.408,1.667-2.747c-0.764-1.794-2.232-3.354-1.898-5.741
		c-1.031,1.274-2.05,0.512-3.091,0.313c-2.137-0.409-4.263-0.791-6.033,1.119c-0.622,0.671-1.497,1.225-2.546,0.569
		c-0.122-0.076-0.383,0.073-0.796,0.167c0.525,0.686,0.945,1.233,1.152,1.505c-0.503,0.372-0.984,0.598-1.283,0.971
		c-1.929,2.407-2.215,5.342-2.432,8.242c-0.197,2.622-0.576,5.287,0.497,7.846c0.867,2.066,1.568,4.217,2.603,6.195
		c1.279,2.449,2.505,5.053,4.331,7.064c3.23,3.559,7.237,6.146,12.004,7.378c6.157,1.591,12.265,2.472,18.625,0.769
		c5.487-1.469,9.559-4.269,11.739-9.633c0.504-1.242,1.339-2.358,2.076-3.495c0.919-1.415,1.008-2.395,0.096-3.612
		c-0.776,1.034-1.442,2.109-2.296,3.004c-0.876,0.918-1.95,1.646-2.914,2.485c-0.9,0.783-1.771,1.601-2.653,2.404
		c-0.158-0.35-0.136-0.482-0.063-0.574c2.266-2.851,5.675-4.653,7.305-8.117c0.421-0.894,1.445-0.598,1.874,0.461
		c0.25,0.618,0.421,1.268,0.711,2.165c0.754-1.098,1.572-1.852,1.847-2.769c0.896-2.995,1.739-6.021,2.338-9.086
		c1.39-7.124,2.083-14.385,4.573-21.283c1.51-4.185,2.879-8.416,4.999-12.351c0.122-0.226,0.15-0.501,0.224-0.753
		c-0.687,0.25-1.167,0.62-1.564,1.064c-4.419,4.945-6.949,10.893-8.87,17.114c-1.839,5.952-3.938,11.774-7.035,17.204
		c-1.628,2.855-3.742,5.299-6.633,6.829c-2.272,1.204-4.735,2.126-7.207,2.857c-3.465,1.025-7.016,1.757-10.38,2.578
		c0.398,0.313,1.027,0.808,1.655,1.303c-0.062,0.102-0.123,0.205-0.185,0.307C57.396,69.784,53.759,68.071,49.878,66.243z
		 M75.889,64.171c2.316-0.651,3.644-2.056,3.799-4.385c0.072-1.087,0.328-2.37-0.818-3.057
		C77.842,59.293,76.852,61.767,75.889,64.171z M50.16,58.597c-0.181-0.088-0.611-0.424-0.728-0.337
		c-0.829,0.616-1.607,1.303-2.352,2.02c-0.061,0.058,0.198,0.673,0.404,0.74C48.104,61.223,50.16,59.493,50.16,58.597z"/>
	<path fill-rule="evenodd" clip-rule="evenodd" d="M116.365,11.096c0.594,6.372,0.148,12.972-0.771,19.532
		c-1.324,9.45-1.676,18.88,0.119,28.302c0.329,1.728,0.885,3.411,1.326,5.117c1.438,5.547,2.134,11.162,1.599,16.896
		c-0.291,3.117-0.682,6.23-0.804,9.354c-0.164,4.258,1.01,8.296,2.521,12.229c0.281,0.73,0.641,1.479,1.751,1.539
		c0.897,0.048,1.032,0.781,0.649,1.59c-0.275,0.582-0.692,1.219-0.653,1.806c0.156,2.34-0.272,4.532-1.294,6.621
		c-0.488,0.998-1.133,1.792-2.424,1.662c-0.525-0.054-1.066-0.082-1.586-0.016c-2.027,0.259-3.188-0.971-4.229-2.407
		c-0.797-1.099-1.436-2.347-2.376-3.299c-2.424-2.454-3.386-5.617-4.591-8.692c-0.586-1.493-1.289-2.973-2.167-4.31
		c-1.36-2.074-2.081-4.163-1.112-6.592c0.095-0.239,0.187-0.534,0.135-0.771c-0.619-2.826-0.831-5.844-2.001-8.426
		c-2.242-4.945-3.202-9.863-1.676-15.137c1.064-3.678,2.157-7.348,3.258-11.015c0.898-2.992,1.789-5.987,2.752-8.959
		c1.195-3.688,2.469-7.351,3.695-11.029c1.971-5.912,3.766-11.87,4.257-18.124c0.328-4.174,0.533-8.357,0.86-12.531
		c0.036-0.46,0.517-0.887,0.791-1.33c0.356,0.322,0.934,0.587,1.034,0.975c0.394,1.524,0.677,3.082,0.919,4.64
		C116.454,9.411,116.365,10.13,116.365,11.096z M120.367,105.959c-0.122-0.819-0.153-1.431-0.309-2.009
		c-0.75-2.763-1.627-5.493-2.281-8.276c-1.018-4.336-0.347-8.688,0.165-13.016c0.719-6.076,0.556-12.135-1.265-17.961
		c-1.801-5.763-2.18-11.679-2.791-17.589c-0.603-5.824,0.787-11.515,1.348-17.25c0.723-7.357,0.983-14.693,0.371-22.054
		c-0.096-1.164-0.469-2.305-0.713-3.456c-0.195,0.02-0.39,0.039-0.584,0.059c-0.112,1.463-0.328,2.927-0.315,4.389
		c0.048,5.73-0.695,11.377-2.133,16.891c-1.164,4.467-2.774,8.817-4.178,13.223c-1.739,5.464-3.394,10.957-5.229,16.389
		c-1.54,4.562-2.896,9.1-1.715,13.98c0.048,0.2-0.104,0.448-0.226,0.9c-0.262-0.641-0.429-1.049-0.693-1.694
		c-0.799,3.735-0.977,7.139,0.6,10.482c0.634,1.345,1.149,2.778,1.481,4.226c0.749,3.263,1.353,6.559,2.001,9.844
		c0.048,0.245-0.021,0.515-0.036,0.772c-0.075,0.008-0.151,0.016-0.228,0.024c-0.282-0.556-0.566-1.112-0.984-1.93
		c-0.502,1.879,0.181,3.04,0.971,4.256c0.947,1.458,1.793,3,2.521,4.58c1.336,2.896,1.883,6.178,4.338,8.52
		c0.855,0.816,1.618,1.741,2.349,2.676c0.34,0.436,0.417,1.078,0.76,1.511c1.262,1.596,3.035,1.604,4.84,1.422
		c1.35-0.136,1.679-1.316,1.934-2.262c0.631-2.353,1.042-4.766,1.595-7.413C121.223,105.547,120.785,105.758,120.367,105.959z"/>
	<path fill-rule="evenodd" clip-rule="evenodd" d="M59.855,22.637c0.08-2.839,1.547-4.02,4.308-4.24
		c2.178-0.173,3.851,1.883,3.948,4.46c0.096,2.555-2.168,4.367-4.444,4.425C61.586,27.334,59.93,25.316,59.855,22.637z
		 M67.437,22.746c0.019-1.832-1.251-3.34-2.875-3.292c-1.79,0.053-3.785,1.201-3.764,3.275c0.022,2.231,1.317,3.667,3.445,3.665
		C66.041,26.392,67.416,24.821,67.437,22.746z"/>
	<path fill-rule="evenodd" clip-rule="evenodd" d="M129.423,75.63c-0.007-2.291,2.183-4.732,4.285-4.782
		c2.41-0.057,4.473,1.713,4.501,3.862c0.033,2.54-2.401,4.892-5.067,4.897C131.068,79.61,129.428,77.857,129.423,75.63z
		 M133.243,78.797c1.995,0.022,4.257-2.021,4.308-3.889c0.055-1.999-1.662-3.374-4.2-3.366c-1.622,0.005-3.178,1.897-3.221,3.92
		C130.088,77.441,131.333,78.776,133.243,78.797z"/>
	<path fill-rule="evenodd" clip-rule="evenodd" d="M86.724,89.104c-0.024-1.739,1.574-3.696,2.993-3.665
		c1.35,0.03,3.007,2.058,3.016,3.687c0.007,1.491-1.951,3.2-3.629,3.169C87.904,92.271,86.745,90.717,86.724,89.104z M92.133,89.06
		c0.003-1.433-1.23-2.824-2.53-2.852c-1.214-0.025-2.308,1.44-2.271,3.039c0.03,1.279,0.892,2.172,2.113,2.19
		C91.064,91.462,92.13,90.52,92.133,89.06z"/>
	<path fill-rule="evenodd" clip-rule="evenodd" d="M132.926,91.834c-0.006-1.512,1.193-2.907,2.49-2.898
		c1.597,0.01,2.397,0.938,2.409,2.79c0.01,1.366-1.058,2.521-2.345,2.54C133.98,94.287,132.932,93.289,132.926,91.834z
		 M135.606,89.6c-1.003,0.028-1.944,1.049-1.944,2.109c0,0.972,0.828,1.768,1.785,1.715c0.939-0.052,1.721-0.947,1.629-2.048
		C137.003,90.505,136.857,89.555,135.606,89.6z"/>
	<path fill-rule="evenodd" clip-rule="evenodd" d="M82.865,98.877c0.968,0.004,2.207,0.962,2.218,1.714
		c0.015,1.043-1.164,2.27-2.184,2.272c-1.078,0.004-1.91-0.948-1.938-2.216C80.942,99.714,81.845,98.874,82.865,98.877z
		 M81.222,100.853c0.751,0.596,1.296,1.288,1.576,1.194c0.543-0.182,1.197-0.741,1.332-1.265c0.216-0.843-0.585-1.173-1.269-1.05
		C82.386,99.818,81.983,100.31,81.222,100.853z"/>
	<path fill-rule="evenodd" clip-rule="evenodd" d="M58.128,35.884c1.077-0.009,1.829,0.774,1.851,1.928
		c0.019,1.062-0.833,2.142-1.693,2.148c-0.957,0.007-1.77-0.9-1.807-2.016C56.437,36.716,57.096,35.893,58.128,35.884z
		 M59.809,37.612c-0.693-0.516-1.361-1.161-1.478-1.073c-0.504,0.379-1.054,0.932-1.167,1.504c-0.065,0.332,0.668,0.821,1.041,1.239
		C58.671,38.797,59.137,38.312,59.809,37.612z"/>
	<path fill-rule="evenodd" clip-rule="evenodd" d="M130.355,105.984c-1.14-0.034-1.733-0.778-1.529-1.633
		c0.169-0.71,0.86-1.497,1.529-1.829c0.654-0.326,1.677,0.959,1.647,2.004C131.973,105.595,131.169,105.861,130.355,105.984z
		 M130.38,102.938c-0.419,0.623-0.856,0.984-0.835,1.318c0.022,0.354,0.478,0.68,0.745,1.018c0.321-0.3,0.857-0.571,0.902-0.908
		C131.238,104.026,130.795,103.622,130.38,102.938z"/>
	<path fill-rule="evenodd" clip-rule="evenodd" d="M102.363,120.707c0.176,0.241,0.352,0.483,0.527,0.725
		c-1.343,0.994-2.576,0.938-3.119-0.164c-0.165-0.337-0.2-0.874-0.037-1.185c0.101-0.193,0.727-0.264,1.042-0.161
		c0.573,0.187,1.092,0.544,1.632,0.829C102.406,120.751,102.363,120.707,102.363,120.707z"/>
	<path fill-rule="evenodd" clip-rule="evenodd" d="M51.777,23.13c1.052-0.756,1.928-0.445,2.136,0.761
		c0.022,0.128,0.027,0.262,0.022,0.392c-0.034,1.088-0.342,1.968-1.568,2.248c-1.078,0.245-1.605-0.436-1.848-1.236
		c-0.33-1.094,0.276-1.822,1.304-2.211c-0.17,0.243-0.464,0.474-0.487,0.729c-0.058,0.651-0.108,1.347,0.078,1.95
		c0.068,0.217,1.077,0.439,1.219,0.277c0.391-0.449,0.701-1.081,0.771-1.673C53.545,23.18,52.708,23.038,51.777,23.13z"/>
	<path fill-rule="evenodd" clip-rule="evenodd" d="M12.713,65.572c0.46,2.939,0.922,5.878,1.384,8.816
		c-0.104,0.018-0.209,0.034-0.313,0.051c-0.479-2.942-0.958-5.885-1.438-8.827C12.469,65.599,12.59,65.585,12.713,65.572z"/>
	<path fill-rule="evenodd" clip-rule="evenodd" d="M96.045,108.182c-0.566,0.16-1.133,0.32-1.699,0.482
		c0.047-0.693-0.007-1.418,0.2-2.061c0.061-0.186,0.983-0.338,1.301-0.15c0.729,0.432,0.736,1.124,0.153,1.773
		c0-0.218,0.089-0.502-0.016-0.638c-0.208-0.271-0.5-0.577-0.803-0.634c-0.158-0.03-0.409,0.435-0.62,0.675
		c0.279,0.215,0.535,0.477,0.845,0.624C95.57,108.332,95.829,108.211,96.045,108.182z"/>
	<path fill-rule="evenodd" clip-rule="evenodd" d="M95.185,117.366c0.544-0.037,1.087-0.073,1.63-0.11
		c0.012,0.348,0.023,0.695,0.035,1.044c-0.546-0.019-1.091-0.038-1.636-0.057C95.204,117.95,95.194,117.658,95.185,117.366z"/>
	<path fill-rule="evenodd" clip-rule="evenodd" d="M113.514,108.726c0.471-0.033,0.797-0.1,1.227,0.033
		c0.218,0.281,0.209,0.489,0.218,0.8c-0.474-0.017-0.946-0.033-1.419-0.05C113.53,109.247,113.522,108.986,113.514,108.726z"/>
	<path fill-rule="evenodd" clip-rule="evenodd" d="M118.362,107.93c0.472-0.033,0.797-0.1,1.228,0.033
		c0.217,0.281,0.156,0.367-0.059,0.647c-0.217,0.166-0.564,0.298-1.144,0.103C118.122,108.428,118.37,108.191,118.362,107.93z"/>
	<path fill-rule="evenodd" clip-rule="evenodd" fill="#FFFFFF" d="M96.045,108.182c-0.216,0.029-0.475,0.15-0.639,0.072
		c-0.31-0.147-0.565-0.409-0.845-0.624c0.211-0.24,0.462-0.705,0.62-0.675c0.303,0.057,0.595,0.362,0.803,0.634
		c0.104,0.136,0.016,0.42,0.016,0.638C96,108.228,96.045,108.182,96.045,108.182z"/>
	<path fill-rule="evenodd" clip-rule="evenodd" fill="#FFFFFF" d="M75.889,64.171c0.963-2.404,1.953-4.877,2.98-7.442
		c1.146,0.687,0.891,1.97,0.818,3.057C79.532,62.115,78.205,63.52,75.889,64.171z"/>
	<path fill-rule="evenodd" clip-rule="evenodd" fill="#FFFFFF" d="M50.16,58.597c0,0.896-2.057,2.625-2.675,2.422
		c-0.206-0.067-0.465-0.683-0.404-0.74c0.744-0.717,1.522-1.404,2.352-2.02C49.549,58.173,49.979,58.509,50.16,58.597z"/>
	<path fill-rule="evenodd" clip-rule="evenodd" fill="#FFFFFF" d="M67.437,22.746c-0.021,2.075-1.396,3.646-3.193,3.648
		c-2.128,0.002-3.423-1.433-3.445-3.665c-0.021-2.074,1.974-3.222,3.764-3.275C66.186,19.405,67.455,20.914,67.437,22.746z"/>
	<path fill-rule="evenodd" clip-rule="evenodd" fill="#FFFFFF" d="M133.243,78.797c-1.91-0.021-3.155-1.355-3.113-3.335
		c0.043-2.022,1.599-3.915,3.221-3.92c2.538-0.008,4.255,1.368,4.2,3.366C137.5,76.776,135.238,78.819,133.243,78.797z"/>
	<path fill-rule="evenodd" clip-rule="evenodd" fill="#FFFFFF" d="M92.133,89.06c-0.003,1.46-1.068,2.402-2.688,2.378
		c-1.222-0.019-2.083-0.911-2.113-2.19c-0.037-1.599,1.057-3.064,2.271-3.039C90.902,86.235,92.136,87.627,92.133,89.06z"/>
	<path fill-rule="evenodd" clip-rule="evenodd" fill="#FFFFFF" d="M135.606,89.6c1.251-0.045,1.396,0.905,1.47,1.776
		c0.092,1.101-0.689,1.996-1.629,2.048c-0.957,0.053-1.785-0.743-1.785-1.715C133.662,90.648,134.604,89.628,135.606,89.6z"/>
	<path fill-rule="evenodd" clip-rule="evenodd" fill="#FFFFFF" d="M81.222,100.853c0.762-0.543,1.164-1.034,1.64-1.12
		c0.684-0.123,1.484,0.207,1.269,1.05c-0.135,0.523-0.789,1.083-1.332,1.265C82.518,102.141,81.973,101.448,81.222,100.853z"/>
	<path fill-rule="evenodd" clip-rule="evenodd" fill="#FFFFFF" d="M59.809,37.612c-0.672,0.699-1.138,1.185-1.604,1.67
		c-0.373-0.418-1.106-0.907-1.041-1.239c0.113-0.572,0.663-1.125,1.167-1.504C58.447,36.452,59.115,37.097,59.809,37.612z"/>
	<path fill-rule="evenodd" clip-rule="evenodd" fill="#FFFFFF" d="M130.38,102.938c0.415,0.684,0.858,1.088,0.812,1.428
		c-0.045,0.337-0.581,0.608-0.902,0.908c-0.268-0.338-0.723-0.664-0.745-1.018C129.523,103.923,129.961,103.562,130.38,102.938z"/>
	<path fill-rule="evenodd" clip-rule="evenodd" fill="#FFFFFF" d="M51.777,23.13c0.931-0.093,1.768,0.05,1.627,1.236
		c-0.07,0.592-0.381,1.225-0.771,1.673c-0.142,0.162-1.15-0.061-1.219-0.277c-0.187-0.604-0.136-1.299-0.078-1.95
		c0.023-0.255,0.317-0.485,0.487-0.729C51.823,23.083,51.777,23.13,51.777,23.13z"/>
	<path fill-rule="evenodd" clip-rule="evenodd" d="M46.32,49.065c-0.408-0.348-0.673-0.574-0.938-0.799
		c0.467-0.318,0.902-0.718,1.415-0.912c0.176-0.066,0.545,0.383,0.827,0.597C47.223,48.295,46.819,48.639,46.32,49.065z"/>
	<path fill-rule="evenodd" clip-rule="evenodd" d="M42.774,44.772c0.337,0.407,0.724,0.738,0.671,0.837
		c-0.181,0.343-0.472,0.751-0.804,0.848c-0.229,0.067-0.597-0.341-0.902-0.537C42.032,45.597,42.324,45.271,42.774,44.772z"/>
	<path fill-rule="evenodd" clip-rule="evenodd" d="M47.252,43.926c0.373,0.177,0.724,0.738,0.671,0.837
		c-0.181,0.343-0.472,0.751-0.805,0.848c-0.229,0.067-0.597-0.341-0.901-0.536C46.51,44.75,46.504,44.295,47.252,43.926z"/>
	<path fill-rule="evenodd" clip-rule="evenodd" d="M117.76,111.59c0.469,0.514,0.749,0.821,1.029,1.129
		c-0.48,0.389-0.915,0.933-1.462,1.095c-0.252,0.074-0.726-0.605-1.098-0.943C116.679,112.494,117.128,112.119,117.76,111.59z"/>
	<path fill-rule="evenodd" clip-rule="evenodd" d="M110.29,106.542c0.051-0.642,0.101-1.283,0.151-1.925
		c0.714,0.313,1.429,0.627,2.143,0.94c-0.073,0.173-0.148,0.347-0.224,0.52c-0.403-0.126-0.806-0.252-1.284-0.402
		c-0.087,0.312-0.174,0.623-0.263,0.933C110.64,106.586,110.464,106.563,110.29,106.542z"/>
</g>
</svg>
