<?xml version="1.0" encoding="utf-8"?>
<!-- Generator: Adobe Illustrator 16.0.0, SVG Export Plug-In . SVG Version: 6.00 Build 0)  -->
<!DOCTYPE svg PUBLIC "-//W3C//DTD SVG 1.1//EN" "http://www.w3.org/Graphics/SVG/1.1/DTD/svg11.dtd">
<svg version="1.1" id="Layer_1" xmlns="http://www.w3.org/2000/svg" xmlns:xlink="http://www.w3.org/1999/xlink" x="0px" y="0px"
	 width="24px" height="24px" viewBox="0 0 24 24" enable-background="new 0 0 24 24" xml:space="preserve">
<path fill-rule="evenodd" clip-rule="evenodd" fill="none" stroke="#000000" stroke-miterlimit="10" d="M11.375,21.001
	c-1.03-0.152-1.791-1.166-1.833-4.833c-1.209-0.959-2.584-2.459-2.417-4.625c0,0,0.25-4.042,4.875-4.292s4.038,4.54,4.042,5.167
	c0.008,1.375-1.417,2.75-2.875,3.292C13.333,18.751,13.625,21.001,11.375,21.001z"/>
<g>
	<path d="M18,11.45c0,0,0.75-0.221,1.5-0.35c0.188-0.037,0.375-0.106,0.551-0.121c0.176,0.002,0.34,0.053,0.48,0.121
		C20.812,11.228,21,11.45,21,11.45v0.1c0,0-0.188,0.223-0.469,0.35c-0.141,0.068-0.305,0.119-0.48,0.121
		c-0.176-0.015-0.363-0.084-0.551-0.121c-0.75-0.129-1.5-0.35-1.5-0.35V11.45z"/>
</g>
<g>
	<path d="M16.213,5.925c0,0,0.37-0.723,0.807-1.384c0.105-0.168,0.188-0.358,0.301-0.502c0.126-0.133,0.28-0.224,0.43-0.285
		c0.293-0.128,0.588-0.12,0.588-0.12l0.074,0.068c0,0,0.029,0.294-0.076,0.596c-0.05,0.153-0.128,0.314-0.251,0.449
		c-0.136,0.125-0.319,0.22-0.479,0.339c-0.626,0.484-1.318,0.908-1.318,0.908L16.213,5.925z"/>
</g>
<g>
	<path d="M11.45,5c0,0-0.221-0.75-0.351-1.5c-0.036-0.188-0.106-0.375-0.12-0.551c0.002-0.176,0.053-0.34,0.12-0.48
		C11.228,2.188,11.45,2,11.45,2h0.1c0,0,0.223,0.188,0.351,0.469c0.067,0.141,0.118,0.305,0.12,0.48
		C12.007,3.125,11.937,3.312,11.9,3.5C11.771,4.25,11.55,5,11.55,5H11.45z"/>
</g>
<g>
	<path d="M6.634,7.279c0,0-0.7-0.334-1.339-0.735C5.133,6.446,4.947,6.374,4.809,6.268C4.68,6.15,4.594,6.002,4.535,5.859
		c-0.121-0.282-0.11-0.571-0.11-0.571l0.066-0.074c0,0,0.287-0.041,0.58,0.051C5.22,5.308,5.375,5.379,5.506,5.494
		C5.625,5.621,5.717,5.798,5.83,5.949C6.296,6.543,6.7,7.205,6.7,7.205L6.634,7.279z"/>
</g>
<g>
	<path d="M6,10.55c0,0-0.75,0.221-1.5,0.35c-0.188,0.037-0.375,0.106-0.551,0.121c-0.176-0.002-0.34-0.053-0.48-0.121
		C3.188,10.772,3,10.55,3,10.55v-0.1c0,0,0.188-0.223,0.469-0.35c0.141-0.068,0.305-0.119,0.48-0.121
		C4.125,9.994,4.312,10.063,4.5,10.1C5.25,10.229,6,10.45,6,10.45V10.55z"/>
</g>
<g>
	<path d="M6.954,15.659c0,0-0.303,0.677-0.675,1.294c-0.09,0.157-0.154,0.336-0.254,0.47c-0.111,0.124-0.252,0.206-0.391,0.261
		c-0.271,0.114-0.555,0.101-0.556,0.101l-0.074-0.066c-0.001,0-0.05-0.279,0.03-0.563c0.037-0.145,0.102-0.295,0.21-0.42
		c0.12-0.115,0.29-0.202,0.435-0.311c0.565-0.445,1.2-0.831,1.2-0.831L6.954,15.659z"/>
</g>
<g>
	<path d="M16.537,15.593c0,0,0.635,0.386,1.2,0.831c0.145,0.108,0.314,0.195,0.435,0.311c0.109,0.125,0.173,0.275,0.21,0.42
		c0.08,0.284,0.03,0.563,0.03,0.563l-0.074,0.066c0,0-0.284,0.014-0.556-0.101c-0.139-0.055-0.28-0.137-0.391-0.261
		c-0.1-0.134-0.164-0.312-0.254-0.47c-0.372-0.617-0.675-1.294-0.675-1.294L16.537,15.593z"/>
</g>
<g>
	<path d="M11.326,13.43c0,0-0.276-0.209-0.465-0.439c-0.051-0.057-0.135-0.105-0.164-0.163c-0.013-0.062,0.023-0.13,0.078-0.195
		c0.101-0.128,0.301-0.245,0.301-0.245l0.098-0.023c0,0,0.231,0.013,0.379,0.081c0.078,0.033,0.142,0.078,0.158,0.139
		c0,0.064-0.053,0.146-0.072,0.22c-0.063,0.291-0.215,0.603-0.215,0.603L11.326,13.43z"/>
</g>
<g>
	<path d="M13.077,13.236c0,0-0.117-0.376-0.147-0.726c-0.012-0.089-0.056-0.187-0.047-0.265c0.023-0.073,0.093-0.126,0.176-0.166
		c0.157-0.081,0.394-0.095,0.394-0.095l0.096,0.028c0,0,0.189,0.142,0.276,0.296c0.048,0.078,0.076,0.161,0.056,0.235
		c-0.035,0.069-0.126,0.127-0.185,0.195c-0.218,0.275-0.522,0.525-0.522,0.525L13.077,13.236z"/>
</g>
</svg>
